<svg width="25" height="25" viewBox="0 0 25 25" fill="none" xmlns="http://www.w3.org/2000/svg">
<path d="M6.68646 10.4153V8.42275C6.68646 5.12516 7.68271 2.44525 12.664 2.44525C17.6452 2.44525 18.6415 5.12516 18.6415 8.42275V10.4153" stroke="#797979" stroke-width="1.49438" stroke-linecap="round" stroke-linejoin="round"/>
<path d="M12.6635 18.8833C14.0391 18.8833 15.1542 17.7682 15.1542 16.3927C15.1542 15.0172 14.0391 13.9021 12.6635 13.9021C11.288 13.9021 10.1729 15.0172 10.1729 16.3927C10.1729 17.7682 11.288 18.8833 12.6635 18.8833Z" stroke="#797979" stroke-width="1.49438" stroke-linecap="round" stroke-linejoin="round"/>
<path d="M17.6447 22.37H7.68218C3.69718 22.37 2.70093 21.3738 2.70093 17.3888V15.3963C2.70093 11.4113 3.69718 10.415 7.68218 10.415H17.6447C21.6297 10.415 22.6259 11.4113 22.6259 15.3963V17.3888C22.6259 21.3738 21.6297 22.37 17.6447 22.37Z" stroke="#797979" stroke-width="1.49438" stroke-linecap="round" stroke-linejoin="round"/>
</svg>
